<mxfile host="app.diagrams.net" agent="Mozilla/5.0 (X11; Ubuntu; Linux x86_64; rv:130.0) Gecko/20100101 Firefox/130.0" version="24.7.12">
  <diagram name="Page-1" id="nuYbT7vG_qlavwxU5nqh">
    <mxGraphModel dx="1395" dy="659" grid="1" gridSize="10" guides="1" tooltips="1" connect="1" arrows="1" fold="1" page="1" pageScale="1" pageWidth="850" pageHeight="1100" math="0" shadow="0">
      <root>
        <mxCell id="0" />
        <mxCell id="1" parent="0" />
        <mxCell id="BsbmPP_DmYxsKIRS5x8Z-28" style="edgeStyle=orthogonalEdgeStyle;rounded=0;orthogonalLoop=1;jettySize=auto;html=1;" parent="1" edge="1">
          <mxGeometry relative="1" as="geometry">
            <mxPoint x="800" y="369.58" as="targetPoint" />
            <mxPoint x="210" y="369.58" as="sourcePoint" />
          </mxGeometry>
        </mxCell>
        <mxCell id="BsbmPP_DmYxsKIRS5x8Z-1" value="&lt;div&gt;PAYMENT&lt;br&gt;&lt;/div&gt;&lt;div&gt;1 OrderCode ghi nhận nhiều transaction&lt;br&gt;&lt;/div&gt;" style="rounded=0;whiteSpace=wrap;html=1;" parent="1" vertex="1">
          <mxGeometry x="80" y="320" width="120" height="80" as="geometry" />
        </mxCell>
        <mxCell id="BsbmPP_DmYxsKIRS5x8Z-112" style="edgeStyle=orthogonalEdgeStyle;rounded=0;orthogonalLoop=1;jettySize=auto;html=1;" parent="1" source="BsbmPP_DmYxsKIRS5x8Z-2" edge="1">
          <mxGeometry relative="1" as="geometry">
            <mxPoint x="840" y="620" as="targetPoint" />
          </mxGeometry>
        </mxCell>
        <mxCell id="BsbmPP_DmYxsKIRS5x8Z-2" value="&lt;div&gt;OMS COMPL:ETED&lt;/div&gt;&lt;div&gt;chỉ ghi nhận duy nhất 1 lần&lt;br&gt;&lt;/div&gt;" style="rounded=0;whiteSpace=wrap;html=1;" parent="1" vertex="1">
          <mxGeometry x="80" y="590" width="120" height="60" as="geometry" />
        </mxCell>
        <mxCell id="BsbmPP_DmYxsKIRS5x8Z-9" value="lưu redis" style="ellipse;whiteSpace=wrap;html=1;" parent="1" vertex="1">
          <mxGeometry x="312.25" y="313" width="57.5" height="20" as="geometry" />
        </mxCell>
        <mxCell id="BsbmPP_DmYxsKIRS5x8Z-10" value="lưu redis" style="ellipse;whiteSpace=wrap;html=1;" parent="1" vertex="1">
          <mxGeometry x="244.75" y="650" width="67.5" height="20" as="geometry" />
        </mxCell>
        <mxCell id="BsbmPP_DmYxsKIRS5x8Z-11" value="keyBy OrderCode" style="text;html=1;align=center;verticalAlign=middle;resizable=0;points=[];autosize=1;strokeColor=none;fillColor=none;" parent="1" vertex="1">
          <mxGeometry x="70" y="290" width="120" height="30" as="geometry" />
        </mxCell>
        <mxCell id="BsbmPP_DmYxsKIRS5x8Z-12" value="keyBy OrderCode" style="text;html=1;align=center;verticalAlign=middle;resizable=0;points=[];autosize=1;strokeColor=none;fillColor=none;" parent="1" vertex="1">
          <mxGeometry x="80" y="550" width="120" height="30" as="geometry" />
        </mxCell>
        <mxCell id="BsbmPP_DmYxsKIRS5x8Z-43" value="&lt;div align=&quot;justify&quot;&gt;+ Ghi nhận Transaction_Completed&lt;/div&gt;&lt;div align=&quot;justify&quot;&gt;+ Clear list TransactionId đang có trong (1)&lt;/div&gt;&lt;div align=&quot;justify&quot;&gt;+ Giữ key (2) vì thực tế k biết sau này còn transaction mới vào(1) để check (2) hay không =&amp;gt; chưa xác định được expire&lt;br&gt;&lt;/div&gt;" style="rounded=1;whiteSpace=wrap;html=1;" parent="1" vertex="1">
          <mxGeometry x="766" y="160" width="390" height="60" as="geometry" />
        </mxCell>
        <mxCell id="BsbmPP_DmYxsKIRS5x8Z-78" style="edgeStyle=orthogonalEdgeStyle;rounded=0;orthogonalLoop=1;jettySize=auto;html=1;" parent="1" source="BsbmPP_DmYxsKIRS5x8Z-62" edge="1">
          <mxGeometry relative="1" as="geometry">
            <mxPoint x="800" y="1142" as="targetPoint" />
          </mxGeometry>
        </mxCell>
        <mxCell id="BsbmPP_DmYxsKIRS5x8Z-62" value="Payment" style="rounded=0;whiteSpace=wrap;html=1;" parent="1" vertex="1">
          <mxGeometry x="70" y="1112" width="120" height="60" as="geometry" />
        </mxCell>
        <mxCell id="BsbmPP_DmYxsKIRS5x8Z-63" style="edgeStyle=orthogonalEdgeStyle;rounded=0;orthogonalLoop=1;jettySize=auto;html=1;exitX=0;exitY=0.5;exitDx=0;exitDy=0;" parent="1" edge="1">
          <mxGeometry relative="1" as="geometry">
            <mxPoint x="70" y="1282" as="targetPoint" />
            <mxPoint x="690" y="1282" as="sourcePoint" />
          </mxGeometry>
        </mxCell>
        <mxCell id="BsbmPP_DmYxsKIRS5x8Z-64" value="redis" style="ellipse;whiteSpace=wrap;html=1;" parent="1" vertex="1">
          <mxGeometry x="232.5" y="1152" width="75" height="20" as="geometry" />
        </mxCell>
        <mxCell id="BsbmPP_DmYxsKIRS5x8Z-65" value="redis" style="ellipse;whiteSpace=wrap;html=1;" parent="1" vertex="1">
          <mxGeometry x="586.25" y="1292" width="67.5" height="20" as="geometry" />
        </mxCell>
        <mxCell id="BsbmPP_DmYxsKIRS5x8Z-66" value="keyBy OrderCode" style="text;html=1;align=center;verticalAlign=middle;resizable=0;points=[];autosize=1;strokeColor=none;fillColor=none;" parent="1" vertex="1">
          <mxGeometry x="60" y="1070" width="120" height="30" as="geometry" />
        </mxCell>
        <mxCell id="BsbmPP_DmYxsKIRS5x8Z-67" value="&lt;div&gt;MainKey: FLC_PaymentDetails_Return&lt;br&gt;&lt;/div&gt;&lt;div&gt;Key: orderCodeReturn,&lt;/div&gt;&lt;div&gt;Value: list TransactionIds&lt;/div&gt;" style="text;html=1;align=center;verticalAlign=middle;resizable=0;points=[];autosize=1;strokeColor=none;fillColor=none;" parent="1" vertex="1">
          <mxGeometry x="97.5" y="1187" width="230" height="60" as="geometry" />
        </mxCell>
        <mxCell id="BsbmPP_DmYxsKIRS5x8Z-68" value="&lt;div&gt;MainKey: FLC_OMS_Returned&lt;br&gt;&lt;/div&gt;&lt;div&gt;Key: OrderReturnCode,&lt;/div&gt;&lt;div&gt;Value: OrderCode&lt;br&gt;&lt;/div&gt;" style="text;html=1;align=center;verticalAlign=middle;resizable=0;points=[];autosize=1;strokeColor=none;fillColor=none;" parent="1" vertex="1">
          <mxGeometry x="525" y="1342" width="190" height="60" as="geometry" />
        </mxCell>
        <mxCell id="BsbmPP_DmYxsKIRS5x8Z-69" style="edgeStyle=orthogonalEdgeStyle;rounded=0;orthogonalLoop=1;jettySize=auto;html=1;exitX=0.5;exitY=1;exitDx=0;exitDy=0;entryX=0.487;entryY=0.044;entryDx=0;entryDy=0;entryPerimeter=0;" parent="1" source="BsbmPP_DmYxsKIRS5x8Z-64" target="BsbmPP_DmYxsKIRS5x8Z-67" edge="1">
          <mxGeometry relative="1" as="geometry" />
        </mxCell>
        <mxCell id="BsbmPP_DmYxsKIRS5x8Z-70" style="edgeStyle=orthogonalEdgeStyle;rounded=0;orthogonalLoop=1;jettySize=auto;html=1;exitX=0.5;exitY=1;exitDx=0;exitDy=0;entryX=0.5;entryY=0.058;entryDx=0;entryDy=0;entryPerimeter=0;" parent="1" source="BsbmPP_DmYxsKIRS5x8Z-65" target="BsbmPP_DmYxsKIRS5x8Z-68" edge="1">
          <mxGeometry relative="1" as="geometry" />
        </mxCell>
        <mxCell id="BsbmPP_DmYxsKIRS5x8Z-71" value="" style="endArrow=classic;html=1;rounded=0;entryX=0;entryY=0.5;entryDx=0;entryDy=0;" parent="1" target="BsbmPP_DmYxsKIRS5x8Z-65" edge="1">
          <mxGeometry width="50" height="50" relative="1" as="geometry">
            <mxPoint x="430" y="1142" as="sourcePoint" />
            <mxPoint x="530" y="1242" as="targetPoint" />
          </mxGeometry>
        </mxCell>
        <mxCell id="BsbmPP_DmYxsKIRS5x8Z-72" style="edgeStyle=orthogonalEdgeStyle;rounded=0;orthogonalLoop=1;jettySize=auto;html=1;" parent="1" source="BsbmPP_DmYxsKIRS5x8Z-73" edge="1">
          <mxGeometry relative="1" as="geometry">
            <mxPoint x="460" y="1432" as="targetPoint" />
          </mxGeometry>
        </mxCell>
        <mxCell id="BsbmPP_DmYxsKIRS5x8Z-73" value="check Redis" style="text;html=1;align=center;verticalAlign=middle;resizable=0;points=[];autosize=1;strokeColor=none;fillColor=none;" parent="1" vertex="1">
          <mxGeometry x="400" y="1202" width="90" height="30" as="geometry" />
        </mxCell>
        <mxCell id="BsbmPP_DmYxsKIRS5x8Z-74" value="" style="endArrow=classic;html=1;rounded=0;entryX=1;entryY=1;entryDx=0;entryDy=0;" parent="1" target="BsbmPP_DmYxsKIRS5x8Z-64" edge="1">
          <mxGeometry width="50" height="50" relative="1" as="geometry">
            <mxPoint x="430" y="1282" as="sourcePoint" />
            <mxPoint x="530" y="1242" as="targetPoint" />
          </mxGeometry>
        </mxCell>
        <mxCell id="BsbmPP_DmYxsKIRS5x8Z-75" value="" style="endArrow=classic;html=1;rounded=0;" parent="1" source="BsbmPP_DmYxsKIRS5x8Z-73" edge="1">
          <mxGeometry width="50" height="50" relative="1" as="geometry">
            <mxPoint x="480" y="1372" as="sourcePoint" />
            <mxPoint x="300" y="1392" as="targetPoint" />
          </mxGeometry>
        </mxCell>
        <mxCell id="BsbmPP_DmYxsKIRS5x8Z-76" value="&lt;div&gt;PUT OrderCode&lt;br&gt;Put Transaction_Completed&lt;/div&gt;" style="rounded=1;whiteSpace=wrap;html=1;" parent="1" vertex="1">
          <mxGeometry x="230" y="1392" width="200" height="60" as="geometry" />
        </mxCell>
        <mxCell id="BsbmPP_DmYxsKIRS5x8Z-77" value="yes" style="text;html=1;align=center;verticalAlign=middle;resizable=0;points=[];autosize=1;strokeColor=none;fillColor=none;" parent="1" vertex="1">
          <mxGeometry x="321" y="1310" width="40" height="30" as="geometry" />
        </mxCell>
        <mxCell id="BsbmPP_DmYxsKIRS5x8Z-79" value="OMS Return" style="rounded=0;whiteSpace=wrap;html=1;" parent="1" vertex="1">
          <mxGeometry x="690" y="1252" width="120" height="60" as="geometry" />
        </mxCell>
        <mxCell id="BsbmPP_DmYxsKIRS5x8Z-80" value="&lt;div&gt;mainKey: FLC_PaymentDetails_Completed&lt;br&gt;&lt;/div&gt;&lt;div&gt;hKey: OrderCode,&lt;/div&gt;&lt;div&gt;value: list TransactionIds&lt;/div&gt;" style="shape=hexagon;perimeter=hexagonPerimeter2;whiteSpace=wrap;html=1;fixedSize=1;" parent="1" vertex="1">
          <mxGeometry x="216" y="210" width="250" height="60" as="geometry" />
        </mxCell>
        <mxCell id="BsbmPP_DmYxsKIRS5x8Z-81" value="&lt;div&gt;MainKey: FLC_OMS_Completed&lt;br&gt;&lt;/div&gt;&lt;div&gt;Key: OrderCode,&lt;/div&gt;Value: &quot;&quot;" style="shape=hexagon;perimeter=hexagonPerimeter2;whiteSpace=wrap;html=1;fixedSize=1;" parent="1" vertex="1">
          <mxGeometry x="203.5" y="680" width="150" height="80" as="geometry" />
        </mxCell>
        <mxCell id="BsbmPP_DmYxsKIRS5x8Z-91" value="1" style="ellipse;whiteSpace=wrap;html=1;aspect=fixed;fillColor=#d5e8d4;strokeColor=#82b366;" parent="1" vertex="1">
          <mxGeometry x="400" y="190" width="30" height="30" as="geometry" />
        </mxCell>
        <mxCell id="BsbmPP_DmYxsKIRS5x8Z-92" value="2" style="ellipse;whiteSpace=wrap;html=1;aspect=fixed;fillColor=#f8cecc;strokeColor=#b85450;" parent="1" vertex="1">
          <mxGeometry x="307.5" y="750" width="30" height="30" as="geometry" />
        </mxCell>
        <mxCell id="BsbmPP_DmYxsKIRS5x8Z-93" value="&lt;div style=&quot;font-size: 9px;&quot;&gt;&lt;font style=&quot;font-size: 9px;&quot;&gt;check Redis (2)&lt;br&gt;&lt;/font&gt;&lt;/div&gt;&lt;font style=&quot;font-size: 9px;&quot;&gt;retry 3 lần, mỗi lần cách nhau n (s) =&amp;gt; dùng state, set onTimer&lt;br&gt;&lt;/font&gt;" style="shape=process;whiteSpace=wrap;html=1;backgroundOutline=1;fillColor=#dae8fc;strokeColor=#6c8ebf;" parent="1" vertex="1">
          <mxGeometry x="378.5" y="283" width="150" height="50" as="geometry" />
        </mxCell>
        <mxCell id="BsbmPP_DmYxsKIRS5x8Z-96" value="&lt;div&gt;no&lt;/div&gt;" style="text;html=1;align=center;verticalAlign=middle;resizable=0;points=[];autosize=1;strokeColor=none;fillColor=none;" parent="1" vertex="1">
          <mxGeometry x="810" y="440" width="40" height="30" as="geometry" />
        </mxCell>
        <mxCell id="BsbmPP_DmYxsKIRS5x8Z-97" value="Clear State" style="rounded=1;whiteSpace=wrap;html=1;" parent="1" vertex="1">
          <mxGeometry x="766" y="240" width="200" height="60" as="geometry" />
        </mxCell>
        <mxCell id="BsbmPP_DmYxsKIRS5x8Z-100" value="" style="endArrow=classic;html=1;rounded=0;exitX=1;exitY=0.75;exitDx=0;exitDy=0;entryX=0;entryY=0.5;entryDx=0;entryDy=0;dashed=1;dashPattern=12 12;" parent="1" source="BsbmPP_DmYxsKIRS5x8Z-93" target="BsbmPP_DmYxsKIRS5x8Z-97" edge="1">
          <mxGeometry width="50" height="50" relative="1" as="geometry">
            <mxPoint x="725" y="450" as="sourcePoint" />
            <mxPoint x="775" y="400" as="targetPoint" />
          </mxGeometry>
        </mxCell>
        <mxCell id="BsbmPP_DmYxsKIRS5x8Z-101" value="" style="endArrow=classic;html=1;rounded=0;dashed=1;dashPattern=12 12;exitX=1;exitY=0.25;exitDx=0;exitDy=0;entryX=0;entryY=0.5;entryDx=0;entryDy=0;" parent="1" source="BsbmPP_DmYxsKIRS5x8Z-93" target="BsbmPP_DmYxsKIRS5x8Z-43" edge="1">
          <mxGeometry width="50" height="50" relative="1" as="geometry">
            <mxPoint x="650" y="415" as="sourcePoint" />
            <mxPoint x="960" y="380" as="targetPoint" />
          </mxGeometry>
        </mxCell>
        <mxCell id="BsbmPP_DmYxsKIRS5x8Z-44" value="yes" style="text;html=1;align=center;verticalAlign=middle;resizable=0;points=[];autosize=1;strokeColor=none;fillColor=none;" parent="1" vertex="1">
          <mxGeometry x="800" y="380" width="40" height="30" as="geometry" />
        </mxCell>
        <mxCell id="BsbmPP_DmYxsKIRS5x8Z-102" value="time" style="text;html=1;align=center;verticalAlign=middle;resizable=0;points=[];autosize=1;strokeColor=none;fillColor=none;" parent="1" vertex="1">
          <mxGeometry x="756" y="338" width="50" height="30" as="geometry" />
        </mxCell>
        <mxCell id="BsbmPP_DmYxsKIRS5x8Z-113" value="time" style="text;html=1;align=center;verticalAlign=middle;resizable=0;points=[];autosize=1;strokeColor=none;fillColor=none;" parent="1" vertex="1">
          <mxGeometry x="766" y="590" width="50" height="30" as="geometry" />
        </mxCell>
        <mxCell id="BsbmPP_DmYxsKIRS5x8Z-115" value="" style="endArrow=none;html=1;rounded=0;dashed=1;dashPattern=12 12;entryX=0.5;entryY=1;entryDx=0;entryDy=0;" parent="1" edge="1">
          <mxGeometry width="50" height="50" relative="1" as="geometry">
            <mxPoint x="340.83" y="648" as="sourcePoint" />
            <mxPoint x="340.58" y="338" as="targetPoint" />
          </mxGeometry>
        </mxCell>
        <mxCell id="AWXA4mH6_cxEoybU3VET-1" value="t1" style="text;html=1;align=center;verticalAlign=middle;resizable=0;points=[];autosize=1;strokeColor=none;fillColor=none;" parent="1" vertex="1">
          <mxGeometry x="315" y="620" width="30" height="30" as="geometry" />
        </mxCell>
        <mxCell id="-__aogC1wngKleKFRekh-1" value="" style="endArrow=none;html=1;rounded=0;dashed=1;dashPattern=12 12;entryX=0.5;entryY=1;entryDx=0;entryDy=0;" edge="1" parent="1">
          <mxGeometry width="50" height="50" relative="1" as="geometry">
            <mxPoint x="444.83000000000004" y="648" as="sourcePoint" />
            <mxPoint x="444.58000000000004" y="338" as="targetPoint" />
          </mxGeometry>
        </mxCell>
        <mxCell id="-__aogC1wngKleKFRekh-3" value="t2" style="text;html=1;align=center;verticalAlign=middle;resizable=0;points=[];autosize=1;strokeColor=none;fillColor=none;" vertex="1" parent="1">
          <mxGeometry x="412.5" y="620" width="30" height="30" as="geometry" />
        </mxCell>
        <mxCell id="-__aogC1wngKleKFRekh-5" value="" style="endArrow=none;html=1;rounded=0;dashed=1;dashPattern=12 12;entryX=0.5;entryY=1;entryDx=0;entryDy=0;" edge="1" parent="1">
          <mxGeometry width="50" height="50" relative="1" as="geometry">
            <mxPoint x="269.83" y="648" as="sourcePoint" />
            <mxPoint x="269.58" y="338" as="targetPoint" />
          </mxGeometry>
        </mxCell>
        <mxCell id="-__aogC1wngKleKFRekh-6" value="t0" style="text;html=1;align=center;verticalAlign=middle;resizable=0;points=[];autosize=1;strokeColor=none;fillColor=none;" vertex="1" parent="1">
          <mxGeometry x="240" y="620" width="30" height="30" as="geometry" />
        </mxCell>
      </root>
    </mxGraphModel>
  </diagram>
</mxfile>
